%TF.GenerationSoftware,KiCad,Pcbnew,6.0.2+dfsg-1*%
%TF.CreationDate,2023-09-04T20:06:16+10:00*%
%TF.ProjectId,xiao-esp32c-temperature-sensor,7869616f-2d65-4737-9033-32632d74656d,rev?*%
%TF.SameCoordinates,Original*%
%TF.FileFunction,Legend,Top*%
%TF.FilePolarity,Positive*%
%FSLAX46Y46*%
G04 Gerber Fmt 4.6, Leading zero omitted, Abs format (unit mm)*
G04 Created by KiCad (PCBNEW 6.0.2+dfsg-1) date 2023-09-04 20:06:16*
%MOMM*%
%LPD*%
G01*
G04 APERTURE LIST*
%ADD10C,0.150000*%
%ADD11C,0.250000*%
%ADD12C,0.120000*%
%ADD13C,0.240000*%
%ADD14C,0.127000*%
G04 APERTURE END LIST*
D10*
%TO.C,CN1*%
X132809523Y-133857142D02*
X132761904Y-133904761D01*
X132619047Y-133952380D01*
X132523809Y-133952380D01*
X132380952Y-133904761D01*
X132285714Y-133809523D01*
X132238095Y-133714285D01*
X132190476Y-133523809D01*
X132190476Y-133380952D01*
X132238095Y-133190476D01*
X132285714Y-133095238D01*
X132380952Y-133000000D01*
X132523809Y-132952380D01*
X132619047Y-132952380D01*
X132761904Y-133000000D01*
X132809523Y-133047619D01*
X133238095Y-133952380D02*
X133238095Y-132952380D01*
X133809523Y-133952380D01*
X133809523Y-132952380D01*
X134809523Y-133952380D02*
X134238095Y-133952380D01*
X134523809Y-133952380D02*
X134523809Y-132952380D01*
X134428571Y-133095238D01*
X134333333Y-133190476D01*
X134238095Y-133238095D01*
%TO.C,R1*%
X130083333Y-124802380D02*
X129750000Y-124326190D01*
X129511904Y-124802380D02*
X129511904Y-123802380D01*
X129892857Y-123802380D01*
X129988095Y-123850000D01*
X130035714Y-123897619D01*
X130083333Y-123992857D01*
X130083333Y-124135714D01*
X130035714Y-124230952D01*
X129988095Y-124278571D01*
X129892857Y-124326190D01*
X129511904Y-124326190D01*
X131035714Y-124802380D02*
X130464285Y-124802380D01*
X130750000Y-124802380D02*
X130750000Y-123802380D01*
X130654761Y-123945238D01*
X130559523Y-124040476D01*
X130464285Y-124088095D01*
%TO.C,U2*%
X140702380Y-121511904D02*
X141511904Y-121511904D01*
X141607142Y-121464285D01*
X141654761Y-121416666D01*
X141702380Y-121321428D01*
X141702380Y-121130952D01*
X141654761Y-121035714D01*
X141607142Y-120988095D01*
X141511904Y-120940476D01*
X140702380Y-120940476D01*
X140797619Y-120511904D02*
X140750000Y-120464285D01*
X140702380Y-120369047D01*
X140702380Y-120130952D01*
X140750000Y-120035714D01*
X140797619Y-119988095D01*
X140892857Y-119940476D01*
X140988095Y-119940476D01*
X141130952Y-119988095D01*
X141702380Y-120559523D01*
X141702380Y-119940476D01*
%TO.C,U1*%
X129466666Y-111616666D02*
X129466666Y-112183333D01*
X129500000Y-112250000D01*
X129533333Y-112283333D01*
X129600000Y-112316666D01*
X129733333Y-112316666D01*
X129800000Y-112283333D01*
X129833333Y-112250000D01*
X129866666Y-112183333D01*
X129866666Y-111616666D01*
X130566666Y-112316666D02*
X130166666Y-112316666D01*
X130366666Y-112316666D02*
X130366666Y-111616666D01*
X130300000Y-111716666D01*
X130233333Y-111783333D01*
X130166666Y-111816666D01*
%TO.C,R2*%
X124833333Y-129952380D02*
X124500000Y-129476190D01*
X124261904Y-129952380D02*
X124261904Y-128952380D01*
X124642857Y-128952380D01*
X124738095Y-129000000D01*
X124785714Y-129047619D01*
X124833333Y-129142857D01*
X124833333Y-129285714D01*
X124785714Y-129380952D01*
X124738095Y-129428571D01*
X124642857Y-129476190D01*
X124261904Y-129476190D01*
X125214285Y-129047619D02*
X125261904Y-129000000D01*
X125357142Y-128952380D01*
X125595238Y-128952380D01*
X125690476Y-129000000D01*
X125738095Y-129047619D01*
X125785714Y-129142857D01*
X125785714Y-129238095D01*
X125738095Y-129380952D01*
X125166666Y-129952380D01*
X125785714Y-129952380D01*
%TO.C,R3*%
X137483333Y-128042380D02*
X137150000Y-127566190D01*
X136911904Y-128042380D02*
X136911904Y-127042380D01*
X137292857Y-127042380D01*
X137388095Y-127090000D01*
X137435714Y-127137619D01*
X137483333Y-127232857D01*
X137483333Y-127375714D01*
X137435714Y-127470952D01*
X137388095Y-127518571D01*
X137292857Y-127566190D01*
X136911904Y-127566190D01*
X137816666Y-127042380D02*
X138435714Y-127042380D01*
X138102380Y-127423333D01*
X138245238Y-127423333D01*
X138340476Y-127470952D01*
X138388095Y-127518571D01*
X138435714Y-127613809D01*
X138435714Y-127851904D01*
X138388095Y-127947142D01*
X138340476Y-127994761D01*
X138245238Y-128042380D01*
X137959523Y-128042380D01*
X137864285Y-127994761D01*
X137816666Y-127947142D01*
D11*
%TO.C,CN1*%
X134000000Y-139670000D02*
X134000000Y-139090000D01*
X126000000Y-139090000D02*
X126000000Y-139670000D01*
X126000000Y-134670000D02*
X126000000Y-135230000D01*
X132000000Y-134670000D02*
X134000000Y-134670000D01*
X134000000Y-139670000D02*
X126000000Y-139670000D01*
X134000000Y-135230000D02*
X134000000Y-134670000D01*
X126000000Y-134670000D02*
X128000000Y-134670000D01*
D12*
%TO.C,R1*%
X130772936Y-126735000D02*
X131227064Y-126735000D01*
X130772936Y-125265000D02*
X131227064Y-125265000D01*
D10*
%TO.C,U2*%
X138250000Y-122420000D02*
X138250000Y-119440000D01*
X135650000Y-119440000D02*
X135650000Y-122420000D01*
X136300000Y-119440000D02*
X135650000Y-119440000D01*
X138250000Y-119440000D02*
X137600000Y-119440000D01*
X135650000Y-122420000D02*
X138250000Y-122420000D01*
X136300000Y-119440000D02*
G75*
G03*
X137600000Y-119440000I650000J0D01*
G01*
D13*
X134870000Y-119270000D02*
G75*
G03*
X134870000Y-119270000I-120000J0D01*
G01*
D14*
%TO.C,U1*%
X121384000Y-90790750D02*
X121384000Y-111119250D01*
X125784000Y-88695250D02*
X134779000Y-88695250D01*
X134779000Y-96047250D02*
X125780000Y-96047250D01*
X139184000Y-90119250D02*
X122055541Y-90119250D01*
X125780000Y-96047250D02*
X125780000Y-88694250D01*
X121384000Y-111119250D02*
X139184000Y-111119250D01*
X139184000Y-111119250D02*
X139184000Y-90119250D01*
X122055541Y-90119250D02*
X121384000Y-90790750D01*
X134779000Y-88695250D02*
X134779000Y-96047250D01*
D12*
%TO.C,R2*%
X126735000Y-126772936D02*
X126735000Y-127227064D01*
X125265000Y-126772936D02*
X125265000Y-127227064D01*
%TO.C,R3*%
X137877064Y-125205000D02*
X137422936Y-125205000D01*
X137877064Y-126675000D02*
X137422936Y-126675000D01*
%TD*%
M02*
