%TF.GenerationSoftware,KiCad,Pcbnew,6.0.2+dfsg-1*%
%TF.CreationDate,2023-09-04T20:06:16+10:00*%
%TF.ProjectId,xiao-esp32c-temperature-sensor,7869616f-2d65-4737-9033-32632d74656d,rev?*%
%TF.SameCoordinates,Original*%
%TF.FileFunction,Copper,L1,Top*%
%TF.FilePolarity,Positive*%
%FSLAX46Y46*%
G04 Gerber Fmt 4.6, Leading zero omitted, Abs format (unit mm)*
G04 Created by KiCad (PCBNEW 6.0.2+dfsg-1) date 2023-09-04 20:06:16*
%MOMM*%
%LPD*%
G01*
G04 APERTURE LIST*
G04 Aperture macros list*
%AMRoundRect*
0 Rectangle with rounded corners*
0 $1 Rounding radius*
0 $2 $3 $4 $5 $6 $7 $8 $9 X,Y pos of 4 corners*
0 Add a 4 corners polygon primitive as box body*
4,1,4,$2,$3,$4,$5,$6,$7,$8,$9,$2,$3,0*
0 Add four circle primitives for the rounded corners*
1,1,$1+$1,$2,$3*
1,1,$1+$1,$4,$5*
1,1,$1+$1,$6,$7*
1,1,$1+$1,$8,$9*
0 Add four rect primitives between the rounded corners*
20,1,$1+$1,$2,$3,$4,$5,0*
20,1,$1+$1,$4,$5,$6,$7,0*
20,1,$1+$1,$6,$7,$8,$9,0*
20,1,$1+$1,$8,$9,$2,$3,0*%
G04 Aperture macros list end*
%TA.AperFunction,ComponentPad*%
%ADD10C,3.800000*%
%TD*%
%TA.AperFunction,SMDPad,CuDef*%
%ADD11R,1.000000X6.000000*%
%TD*%
%TA.AperFunction,SMDPad,CuDef*%
%ADD12R,1.800000X3.400000*%
%TD*%
%TA.AperFunction,SMDPad,CuDef*%
%ADD13RoundRect,0.250000X-0.350000X-0.450000X0.350000X-0.450000X0.350000X0.450000X-0.350000X0.450000X0*%
%TD*%
%TA.AperFunction,SMDPad,CuDef*%
%ADD14R,1.400000X0.410000*%
%TD*%
%TA.AperFunction,SMDPad,CuDef*%
%ADD15RoundRect,1.000000X-0.375000X0.000000X0.375000X0.000000X0.375000X0.000000X-0.375000X0.000000X0*%
%TD*%
%TA.AperFunction,ComponentPad*%
%ADD16R,2.000000X1.250000*%
%TD*%
%TA.AperFunction,SMDPad,CuDef*%
%ADD17RoundRect,0.250000X-0.450000X0.350000X-0.450000X-0.350000X0.450000X-0.350000X0.450000X0.350000X0*%
%TD*%
%TA.AperFunction,SMDPad,CuDef*%
%ADD18RoundRect,0.250000X0.350000X0.450000X-0.350000X0.450000X-0.350000X-0.450000X0.350000X-0.450000X0*%
%TD*%
%TA.AperFunction,ViaPad*%
%ADD19C,1.250000*%
%TD*%
%TA.AperFunction,Conductor*%
%ADD20C,0.250000*%
%TD*%
%TA.AperFunction,Conductor*%
%ADD21C,1.000000*%
%TD*%
G04 APERTURE END LIST*
D10*
%TO.P,H4,1,1*%
%TO.N,unconnected-(H4-Pad1)*%
X150000000Y-92500000D03*
%TD*%
%TO.P,H3,1,1*%
%TO.N,unconnected-(H3-Pad1)*%
X110000000Y-92500000D03*
%TD*%
D11*
%TO.P,CN1,1,1*%
%TO.N,Net-(CN1-Pad1)*%
X131000000Y-134840000D03*
%TO.P,CN1,2,2*%
%TO.N,Net-(CN1-Pad2)*%
X129000000Y-134840000D03*
D12*
%TO.P,CN1,3,3*%
%TO.N,unconnected-(CN1-Pad3)*%
X126650000Y-137160000D03*
%TO.P,CN1,4,4*%
%TO.N,unconnected-(CN1-Pad4)*%
X133350000Y-137160000D03*
%TD*%
D10*
%TO.P,H1,1,1*%
%TO.N,unconnected-(H1-Pad1)*%
X110000000Y-147500000D03*
%TD*%
D13*
%TO.P,R1,1*%
%TO.N,Net-(R1-Pad1)*%
X130000000Y-126000000D03*
%TO.P,R1,2*%
%TO.N,Net-(CN1-Pad1)*%
X132000000Y-126000000D03*
%TD*%
D10*
%TO.P,H2,1,1*%
%TO.N,unconnected-(H2-Pad1)*%
X150000000Y-147500000D03*
%TD*%
D14*
%TO.P,U2,1,DQ*%
%TO.N,Net-(R3-Pad2)*%
X134650000Y-119940000D03*
%TO.P,U2,2,NC*%
%TO.N,unconnected-(U2-Pad2)*%
X134650000Y-120590000D03*
%TO.P,U2,3,NC*%
%TO.N,unconnected-(U2-Pad3)*%
X134650000Y-121250000D03*
%TO.P,U2,4,GND*%
%TO.N,GND*%
X134650000Y-121900000D03*
%TO.P,U2,5,NC*%
%TO.N,unconnected-(U2-Pad5)*%
X139250000Y-121900000D03*
%TO.P,U2,6,NC*%
%TO.N,unconnected-(U2-Pad6)*%
X139250000Y-121250000D03*
%TO.P,U2,7,NC*%
%TO.N,unconnected-(U2-Pad7)*%
X139250000Y-120590000D03*
%TO.P,U2,8,VDD*%
%TO.N,+3V3*%
X139250000Y-119940000D03*
%TD*%
D15*
%TO.P,U1,1,PA02_A0_D0*%
%TO.N,Net-(R1-Pad1)*%
X122219000Y-92999250D03*
%TO.P,U1,2,PA4_A1_D1*%
%TO.N,unconnected-(U1-Pad2)*%
X122219000Y-95539250D03*
%TO.P,U1,3,PA10_A2_D2*%
%TO.N,unconnected-(U1-Pad3)*%
X122219000Y-98079250D03*
%TO.P,U1,4,PA11_A3_D3*%
%TO.N,unconnected-(U1-Pad4)*%
X122219000Y-100619250D03*
%TO.P,U1,5,PA8_A4_D4_SDA*%
%TO.N,unconnected-(U1-Pad5)*%
X122219000Y-103159250D03*
%TO.P,U1,6,PA9_A5_D5_SCL*%
%TO.N,unconnected-(U1-Pad6)*%
X122219000Y-105699250D03*
%TO.P,U1,7,PB08_A6_D6_TX*%
%TO.N,unconnected-(U1-Pad7)*%
X122219000Y-108239250D03*
%TO.P,U1,8,PB09_A7_D7_RX*%
%TO.N,unconnected-(U1-Pad8)*%
X138384000Y-108239250D03*
%TO.P,U1,9,PA7_A8_D8_SCK*%
%TO.N,unconnected-(U1-Pad9)*%
X138384000Y-105699250D03*
%TO.P,U1,10,PA5_A9_D9_MISO*%
%TO.N,Net-(R3-Pad2)*%
X138384000Y-103159250D03*
%TO.P,U1,11,PA6_A10_D10_MOSI*%
%TO.N,unconnected-(U1-Pad11)*%
X138384000Y-100619250D03*
%TO.P,U1,12,3V3*%
%TO.N,+3V3*%
X138384000Y-98079250D03*
%TO.P,U1,13,GND*%
%TO.N,GND*%
X138384000Y-95539250D03*
%TO.P,U1,14,5V*%
%TO.N,unconnected-(U1-Pad14)*%
X138384000Y-92999250D03*
D16*
%TO.P,U1,15,BAT+*%
%TO.N,Net-(CN1-Pad1)*%
X125884000Y-98619250D03*
%TO.P,U1,16,BAT-*%
%TO.N,Net-(CN1-Pad2)*%
X125884000Y-100119250D03*
%TD*%
D17*
%TO.P,R2,1*%
%TO.N,Net-(R1-Pad1)*%
X126000000Y-126000000D03*
%TO.P,R2,2*%
%TO.N,Net-(CN1-Pad2)*%
X126000000Y-128000000D03*
%TD*%
D18*
%TO.P,R3,1*%
%TO.N,+3V3*%
X138650000Y-125940000D03*
%TO.P,R3,2*%
%TO.N,Net-(R3-Pad2)*%
X136650000Y-125940000D03*
%TD*%
D19*
%TO.N,Net-(CN1-Pad2)*%
X124000000Y-128000000D03*
%TO.N,Net-(CN1-Pad1)*%
X132000000Y-123500000D03*
%TD*%
D20*
%TO.N,GND*%
X132750000Y-116660000D02*
X132750000Y-116500000D01*
X132750000Y-120950000D02*
X133700000Y-121900000D01*
X132750000Y-111360054D02*
X135750000Y-108360054D01*
X132750000Y-116500000D02*
X132750000Y-111360054D01*
X132750000Y-116500000D02*
X132750000Y-120950000D01*
X135750000Y-97500000D02*
X137710750Y-95539250D01*
X134650000Y-121900000D02*
X133700000Y-121900000D01*
X137710750Y-95539250D02*
X138384000Y-95539250D01*
X135750000Y-108360054D02*
X135750000Y-97500000D01*
%TO.N,+3V3*%
X140274511Y-120060489D02*
X140154022Y-119940000D01*
X141000000Y-113500000D02*
X139250000Y-115250000D01*
X138650000Y-125940000D02*
X140274511Y-124315489D01*
X139250000Y-115250000D02*
X139250000Y-119940000D01*
X140274511Y-124315489D02*
X140274511Y-120060489D01*
X139250000Y-119940000D02*
X140150000Y-119940000D01*
X139579250Y-98079250D02*
X141000000Y-99500000D01*
X141000000Y-99500000D02*
X141000000Y-113500000D01*
X138384000Y-98079250D02*
X139579250Y-98079250D01*
X140154022Y-119940000D02*
X139250000Y-119940000D01*
D21*
%TO.N,Net-(CN1-Pad2)*%
X126000000Y-128000000D02*
X124000000Y-128000000D01*
X129000000Y-131000000D02*
X129000000Y-134840000D01*
X126000000Y-128000000D02*
X129000000Y-131000000D01*
%TO.N,Net-(CN1-Pad1)*%
X132000000Y-126000000D02*
X132000000Y-123500000D01*
X131000000Y-131000000D02*
X132000000Y-130000000D01*
X131000000Y-131000000D02*
X131000000Y-134840000D01*
X132000000Y-130000000D02*
X132000000Y-126000000D01*
D20*
%TO.N,Net-(R1-Pad1)*%
X122219000Y-92999250D02*
X122499250Y-92999250D01*
X126000000Y-126000000D02*
X130000000Y-126000000D01*
X124250000Y-94750000D02*
X124250000Y-124250000D01*
X122499250Y-92999250D02*
X124250000Y-94750000D01*
X124250000Y-124250000D02*
X126000000Y-126000000D01*
%TO.N,Net-(R3-Pad2)*%
X139159250Y-103159250D02*
X138384000Y-103159250D01*
X136650000Y-125940000D02*
X136650000Y-120990000D01*
X135600000Y-119940000D02*
X134650000Y-119940000D01*
X140500000Y-104500000D02*
X139159250Y-103159250D01*
X136150000Y-114350000D02*
X136150000Y-119390000D01*
X136650000Y-120990000D02*
X135600000Y-119940000D01*
X136150000Y-119390000D02*
X135600000Y-119940000D01*
X136150000Y-114350000D02*
X140500000Y-110000000D01*
X140500000Y-110000000D02*
X140500000Y-104500000D01*
%TD*%
M02*
